<svg width="25" height="26" viewBox="0 0 25 26" fill="none" xmlns="http://www.w3.org/2000/svg">
<path d="M13.2362 5.23193V0C6.7671 0.554031 1.54325 5.31996 0 11.6635H5.30861C6.59903 8.32907 9.60717 5.68351 13.2362 5.23193ZM14.104 2.38231V5.23193C14.104 5.69123 13.7452 6.07787 13.3027 6.13277C10.1216 6.52619 7.36971 8.80307 6.14139 12.0419C6.00934 12.3898 5.67085 12.6394 5.30861 12.6394H2.16363C2.09648 13.2087 2.061 13.6637 2.061 14.2C2.061 20.7227 7.19017 26 13.5175 26C19.8447 26 25 20.7073 25 14.1847C25 7.8466 20.2574 2.67012 14.104 2.38231ZM13.4156 20.0459C10.1889 20.0459 7.57352 17.3496 7.57352 14.0235C7.57352 10.6974 10.1889 8.00106 13.4156 8.00106C16.642 8.00106 19.2576 10.6975 19.2576 14.0235C19.2577 17.3496 16.642 20.0459 13.4156 20.0459ZM13.3832 8.90581C10.6698 8.90581 8.47012 11.1734 8.47012 13.9707C8.47012 16.7678 10.6698 19.0354 13.3832 19.0354C16.0966 19.0354 18.2961 16.7677 18.2961 13.9707C18.2961 11.1734 16.0967 8.90581 13.3832 8.90581ZM9.4521 13.1553C9.4521 12.4176 10.0322 11.8194 10.7478 11.8194C11.4635 11.8194 12.0434 12.4175 12.0434 13.1553C12.0434 13.8929 11.4635 14.4909 10.7478 14.4909C10.0321 14.4909 9.4521 13.893 9.4521 13.1553ZM11.6721 17.7575C10.9563 17.7575 10.3763 17.1595 10.3763 16.4217C10.3763 15.6839 10.9563 15.0861 11.6721 15.0861C12.3876 15.0861 12.9676 15.6839 12.9676 16.4217C12.9676 17.1595 12.3877 17.7575 11.6721 17.7575ZM12.0927 10.8414C12.0927 10.1037 12.6727 9.5057 13.3883 9.5057C14.1039 9.5057 14.6839 10.1037 14.6839 10.8414C14.6839 11.579 14.1039 12.1771 13.3883 12.1771C12.6727 12.1771 12.0927 11.5791 12.0927 10.8414ZM14.9727 17.8482C14.2571 17.8482 13.677 17.2501 13.677 16.5124C13.677 15.7748 14.257 15.1768 14.9727 15.1768C15.6883 15.1768 16.2683 15.7748 16.2683 16.5124C16.2683 17.25 15.6883 17.8482 14.9727 17.8482ZM17.3246 13.2006C17.3246 13.9382 16.7444 14.5363 16.029 14.5363C15.3134 14.5363 14.7333 13.9383 14.7333 13.2006C14.7333 12.4629 15.3135 11.8648 16.029 11.8648C16.7444 11.8648 17.3246 12.4629 17.3246 13.2006Z" fill="#D4D9DF"/>
</svg>
