<svg width="20" height="19" viewBox="0 0 20 19" fill="none" xmlns="http://www.w3.org/2000/svg">
<path d="M10 18.4999L8.55 17.1999C6.86667 15.6832 5.475 14.3749 4.375 13.2749C3.275 12.1749 2.4 11.1874 1.75 10.3124C1.1 9.4374 0.645833 8.63324 0.3875 7.8999C0.129167 7.16657 0 6.41657 0 5.6499C0 4.08324 0.525 2.7749 1.575 1.7249C2.625 0.674902 3.93333 0.149902 5.5 0.149902C6.36667 0.149902 7.19167 0.333236 7.975 0.699902C8.75833 1.06657 9.43333 1.58324 10 2.2499C10.5667 1.58324 11.2417 1.06657 12.025 0.699902C12.8083 0.333236 13.6333 0.149902 14.5 0.149902C16.0667 0.149902 17.375 0.674902 18.425 1.7249C19.475 2.7749 20 4.08324 20 5.6499C20 6.41657 19.8708 7.16657 19.6125 7.8999C19.3542 8.63324 18.9 9.4374 18.25 10.3124C17.6 11.1874 16.725 12.1749 15.625 13.2749C14.525 14.3749 13.1333 15.6832 11.45 17.1999L10 18.4999Z" fill="url(#paint0_linear_547_3545)"/>
<defs>
<linearGradient id="paint0_linear_547_3545" x1="0" y1="8.99988" x2="22.5" y2="8.99988" gradientUnits="userSpaceOnUse">
<stop stop-color="#5FCD84"/>
<stop offset="1" stop-color="#A1DAB1"/>
</linearGradient>
</defs>
</svg>
