<svg width="20" height="20" viewBox="0 0 20 20" fill="none" xmlns="http://www.w3.org/2000/svg">
<path d="M5.5947 19.5999C5.0982 19.5999 4.67495 19.4232 4.32495 19.0697C3.97495 18.7162 3.79995 18.2912 3.79995 17.7947C3.79995 17.2982 3.9767 16.8749 4.3302 16.5249C4.6837 16.1749 5.1087 15.9999 5.6052 15.9999C6.1017 15.9999 6.52495 16.1767 6.87495 16.5302C7.22495 16.8837 7.39995 17.3087 7.39995 17.8052C7.39995 18.3017 7.2232 18.7249 6.8697 19.0749C6.5162 19.4249 6.0912 19.5999 5.5947 19.5999ZM16.3947 19.5999C15.8982 19.5999 15.475 19.4232 15.125 19.0697C14.775 18.7162 14.6 18.2912 14.6 17.7947C14.6 17.2982 14.7767 16.8749 15.1302 16.5249C15.4837 16.1749 15.9087 15.9999 16.4052 15.9999C16.9017 15.9999 17.325 16.1767 17.675 16.5302C18.025 16.8837 18.2 17.3087 18.2 17.8052C18.2 18.3017 18.0232 18.7249 17.6697 19.0749C17.3162 19.4249 16.8912 19.5999 16.3947 19.5999ZM4.54995 2.7999H18.8C19.0333 2.7999 19.2041 2.89157 19.3125 3.0749C19.4208 3.25824 19.4333 3.4499 19.35 3.6499L16.5657 10.0964C16.4219 10.4321 16.2041 10.6999 15.9125 10.8999C15.6208 11.0999 15.2916 11.1999 14.925 11.1999H6.92495L5.87495 12.9999H18.2V14.7999H5.89995C5.18329 14.7999 4.65412 14.4987 4.31245 13.8962C3.97079 13.2935 3.97495 12.6947 4.32495 12.0999L5.62495 9.8499L2.34995 2.1999H0.199951V0.399902H3.52495L4.54995 2.7999Z" fill="url(#paint0_linear_547_3539)"/>
<defs>
<linearGradient id="paint0_linear_547_3539" x1="0.199951" y1="9.65982" x2="21.8048" y2="9.65982" gradientUnits="userSpaceOnUse">
<stop stop-color="#5FCD84"/>
<stop offset="1" stop-color="#A1DAB1"/>
</linearGradient>
</defs>
</svg>
