<svg width="19" height="19" viewBox="0 0 19 19" fill="none" xmlns="http://www.w3.org/2000/svg">
<path d="M14.325 8L14.05 6.825C13.8667 6.75833 13.6875 6.675 13.5125 6.575C13.3375 6.475 13.175 6.35833 13.025 6.225L11.875 6.6L11.2 5.45L12.075 4.6C12.0417 4.4 12.025 4.2 12.025 4C12.025 3.8 12.0417 3.6 12.075 3.4L11.2 2.6L11.875 1.45L13 1.775C13.15 1.64167 13.3125 1.525 13.4875 1.425C13.6625 1.325 13.85 1.24167 14.05 1.175L14.325 0H15.65L15.95 1.15C16.15 1.23333 16.3375 1.325 16.5125 1.425C16.6875 1.525 16.85 1.64167 17 1.775L18.125 1.45L18.8 2.6L17.95 3.4C17.9833 3.6 18.0042 3.80417 18.0125 4.0125C18.0208 4.22083 18 4.425 17.95 4.625L18.8 5.425L18.15 6.575L17 6.225C16.85 6.35833 16.6833 6.475 16.5 6.575C16.3167 6.675 16.1333 6.75833 15.95 6.825L15.65 8H14.325ZM15 5.5C15.4167 5.5 15.7708 5.35417 16.0625 5.0625C16.3542 4.77083 16.5 4.41667 16.5 4C16.5 3.58333 16.3542 3.22917 16.0625 2.9375C15.7708 2.64583 15.4167 2.5 15 2.5C14.5833 2.5 14.2292 2.64583 13.9375 2.9375C13.6458 3.22917 13.5 3.58333 13.5 4C13.5 4.41667 13.6458 4.77083 13.9375 5.0625C14.2292 5.35417 14.5833 5.5 15 5.5ZM4.5 14C4.91667 14 5.27083 13.8542 5.5625 13.5625C5.85417 13.2708 6 12.9167 6 12.5C6 12.0833 5.85417 11.7292 5.5625 11.4375C5.27083 11.1458 4.91667 11 4.5 11C4.08333 11 3.72917 11.1458 3.4375 11.4375C3.14583 11.7292 3 12.0833 3 12.5C3 12.9167 3.14583 13.2708 3.4375 13.5625C3.72917 13.8542 4.08333 14 4.5 14ZM13.5 14C13.9167 14 14.2708 13.8542 14.5625 13.5625C14.8542 13.2708 15 12.9167 15 12.5C15 12.0833 14.8542 11.7292 14.5625 11.4375C14.2708 11.1458 13.9167 11 13.5 11C13.0833 11 12.7292 11.1458 12.4375 11.4375C12.1458 11.7292 12 12.0833 12 12.5C12 12.9167 12.1458 13.2708 12.4375 13.5625C12.7292 13.8542 13.0833 14 13.5 14ZM15 10C15.5333 10 16.0542 9.93333 16.5625 9.8C17.0708 9.66667 17.55 9.46667 18 9.2V18C18 18.2833 17.9042 18.5208 17.7125 18.7125C17.5208 18.9042 17.2833 19 17 19H16C15.7167 19 15.4792 18.9042 15.2875 18.7125C15.0958 18.5208 15 18.2833 15 18V17H3V18C3 18.2833 2.90417 18.5208 2.7125 18.7125C2.52083 18.9042 2.28333 19 2 19H1C0.716667 19 0.479167 18.9042 0.2875 18.7125C0.0958333 18.5208 0 18.2833 0 18V10L2.075 4C2.175 3.7 2.35417 3.45833 2.6125 3.275C2.87083 3.09167 3.16667 3 3.5 3H9.1C9.06667 3.16667 9.04167 3.32917 9.025 3.4875C9.00833 3.64583 9 3.81667 9 4C9 4.18333 9.00833 4.35417 9.025 4.5125C9.04167 4.67083 9.06667 4.83333 9.1 5H3.85L2.8 8H10.55C11.1333 8.63333 11.8083 9.125 12.575 9.475C13.3417 9.825 14.15 10 15 10Z" fill="url(#paint0_linear_547_4532)"/>
<defs>
<linearGradient id="paint0_linear_547_4532" x1="0" y1="9.16346" x2="21.15" y2="9.16346" gradientUnits="userSpaceOnUse">
<stop stop-color="#5FCD84"/>
<stop offset="1" stop-color="#A1DAB1"/>
</linearGradient>
</defs>
</svg>
