<svg width="18" height="18" viewBox="0 0 18 18" fill="none" xmlns="http://www.w3.org/2000/svg">
<path d="M3.57253 18C3.07253 18 2.6392 17.8333 2.27253 17.5C1.90587 17.1667 1.68087 16.7583 1.59753 16.275L0.0102221 5.14114C-0.0756518 4.5388 0.391777 4 1.00021 4H2.84753V2C2.84753 1.45 3.04337 0.979167 3.43503 0.5875C3.8267 0.195833 4.29753 0 4.84753 0H12.8475C13.3975 0 13.8684 0.195833 14.26 0.5875C14.6517 0.979167 14.8475 1.45 14.8475 2V4H16.6949C17.3033 4 17.7707 4.53879 17.6848 5.14114L16.0975 16.275C16.0142 16.7583 15.785 17.1667 15.41 17.5C15.035 17.8333 14.5975 18 14.0975 18H3.57253ZM7.5147 13.7196C7.6711 13.8747 7.92341 13.8741 8.07913 13.7184L12.5335 9.26402C12.6514 9.14613 12.6506 8.95473 12.5316 8.83788L11.5346 7.85839C11.4172 7.743 11.2287 7.74384 11.1123 7.86026L7.79753 11.175L6.58467 9.96213C6.46751 9.84497 6.27756 9.84497 6.1604 9.96213L5.23163 10.8909C5.07493 11.0476 5.07549 11.3018 5.23287 11.4578L7.5147 13.7196ZM4.84753 4H12.8475V2H4.84753V4Z" fill="url(#paint0_linear_2269_103)"/>
<defs>
<linearGradient id="paint0_linear_2269_103" x1="-0.152466" y1="8.68117" x2="20.0975" y2="8.68118" gradientUnits="userSpaceOnUse">
<stop stop-color="#5FCD84"/>
<stop offset="1" stop-color="#A1DAB1"/>
</linearGradient>
</defs>
</svg>
