<svg width="18" height="18" viewBox="0 0 18 18" fill="none" xmlns="http://www.w3.org/2000/svg">
<path d="M6 18H2C1.45 18 0.979167 17.8042 0.5875 17.4125C0.195833 17.0208 0 16.55 0 16V9C0 7.75 0.2375 6.57917 0.7125 5.4875C1.1875 4.39583 1.82917 3.44583 2.6375 2.6375C3.44583 1.82917 4.39583 1.1875 5.4875 0.7125C6.57917 0.2375 7.75 0 9 0C10.25 0 11.4208 0.2375 12.5125 0.7125C13.6042 1.1875 14.5542 1.82917 15.3625 2.6375C16.1708 3.44583 16.8125 4.39583 17.2875 5.4875C17.7625 6.57917 18 7.75 18 9V16C18 16.55 17.8042 17.0208 17.4125 17.4125C17.0208 17.8042 16.55 18 16 18H12V10H16V9C16 7.05 15.3208 5.39583 13.9625 4.0375C12.6042 2.67917 10.95 2 9 2C7.05 2 5.39583 2.67917 4.0375 4.0375C2.67917 5.39583 2 7.05 2 9V10H6V18Z" fill="url(#paint0_linear_609_1257)"/>
<defs>
<linearGradient id="paint0_linear_609_1257" x1="0" y1="8.68117" x2="20.25" y2="8.68118" gradientUnits="userSpaceOnUse">
<stop stop-color="#5FCD84"/>
<stop offset="1" stop-color="#A1DAB1"/>
</linearGradient>
</defs>
</svg>
