<svg width="21" height="18" viewBox="0 0 21 18" fill="none" xmlns="http://www.w3.org/2000/svg">
<path d="M20 14C19.4477 14 19 13.5523 19 13V7.1L10.4786 11.7394C10.1803 11.9019 9.81983 11.9017 9.52159 11.739L0.609475 6.8779C-0.0853892 6.49888 -0.0853885 5.50112 0.609475 5.1221L9.52115 0.261192C9.81962 0.0983862 10.1804 0.0983862 10.4789 0.261192L20.4789 5.71574C20.8001 5.89097 21 6.22769 21 6.59363V13C21 13.5523 20.5523 14 20 14ZM10.4771 17.741C10.1795 17.9025 9.82046 17.9025 9.52291 17.741L3.52291 14.4839C3.20067 14.3089 3 13.9717 3 13.605V10.8807C3 10.1225 3.81077 9.64013 4.47709 10.0019L9.52291 12.741C9.82046 12.9025 10.1795 12.9025 10.4771 12.741L15.5229 10.0019C16.1892 9.64013 17 10.1225 17 10.8807V13.605C17 13.9717 16.7993 14.3089 16.4771 14.4839L10.4771 17.741Z" fill="url(#paint0_linear_609_1269)"/>
<defs>
<linearGradient id="paint0_linear_609_1269" x1="-1" y1="8.68117" x2="23.75" y2="8.68118" gradientUnits="userSpaceOnUse">
<stop stop-color="#5FCD84"/>
<stop offset="1" stop-color="#A1DAB1"/>
</linearGradient>
</defs>
</svg>
