<svg width="25" height="24" viewBox="0 0 25 24" fill="none" xmlns="http://www.w3.org/2000/svg">
<path d="M9.13809 3.20927C8.82175 3.20927 8.58267 3.44062 8.58267 3.76089V4.45128L12.4611 8.37629L16.3934 4.39665V3.76081C16.3934 3.44063 16.1186 3.20919 15.8022 3.20919L9.13809 3.20927ZM13.4547 12.1744C13.4547 12.1739 13.4547 12.1734 13.4547 12.1729L11.1955 14.4202C11.2459 14.4165 11.2772 14.4141 11.3286 14.4141C12.4238 14.4141 13.3161 15.2496 13.4378 16.3251L15.2297 13.8451C15.1683 13.852 15.1425 13.856 15.0794 13.856C14.1619 13.8559 13.4547 13.1031 13.4547 12.1744ZM17.244 0.629987C17.244 0.282036 16.9653 0 16.6216 0H8.19991C7.85606 0 7.57741 0.282036 7.57741 0.629987V2.10954C7.57741 2.4575 7.85614 2.73953 8.19991 2.73953H16.6216C16.9654 2.73953 17.244 2.4575 17.244 2.10954V0.629987ZM16.0067 0.746749C16.0067 0.604372 16.1368 0.489015 16.2774 0.489015C16.418 0.489015 16.548 0.604372 16.548 0.746749V2.00688C16.548 2.14926 16.418 2.26462 16.2774 2.26462C16.1367 2.26462 16.0067 2.14926 16.0067 2.00688V0.746749ZM14.692 0.746749C14.692 0.604372 14.822 0.489015 14.9627 0.489015C15.1033 0.489015 15.2334 0.604372 15.2334 0.746749V2.00688C15.2334 2.14926 15.1033 2.26462 14.9627 2.26462C14.822 2.26462 14.692 2.14926 14.692 2.00688V0.746749ZM13.4547 0.746749C13.4547 0.604372 13.546 0.489015 13.6867 0.489015C13.8273 0.489015 13.9187 0.604372 13.9187 0.746749V2.00688C13.9187 2.14926 13.8273 2.26462 13.6867 2.26462C13.546 2.26462 13.4547 2.14926 13.4547 2.00688V0.746749ZM12.14 0.746749C12.14 0.604372 12.2314 0.489015 12.372 0.489015C12.5126 0.489015 12.604 0.604372 12.604 0.746749V2.00688C12.604 2.14926 12.5126 2.26462 12.372 2.26462C12.2314 2.26462 12.14 2.14926 12.14 2.00688V0.746749ZM10.8253 0.746749C10.8253 0.604372 10.9554 0.489015 11.096 0.489015C11.2366 0.489015 11.3667 0.604372 11.3667 0.746749V2.00688C11.3667 2.14926 11.2366 2.26462 11.096 2.26462C10.9554 2.26462 10.8253 2.14926 10.8253 2.00688V0.746749ZM9.51067 0.746749C9.51067 0.604372 9.64076 0.489015 9.78134 0.489015C9.92193 0.489015 10.052 0.604372 10.052 0.746749V2.00688C10.052 2.14926 9.92193 2.26462 9.78134 2.26462C9.64076 2.26462 9.51067 2.14926 9.51067 2.00688V0.746749ZM8.196 0.746749C8.196 0.604372 8.326 0.489015 8.46667 0.489015C8.60725 0.489015 8.73734 0.604372 8.73734 0.746749V2.00688C8.73734 2.14926 8.60725 2.26462 8.46667 2.26462C8.326 2.26462 8.196 2.14926 8.196 2.00688V0.746749ZM15.038 10.9699C14.7323 10.9699 14.4546 11.0875 14.2439 11.279C14.2326 11.3001 14.2192 11.3202 14.2017 11.3379L14.0822 11.4588C13.9356 11.6591 13.8479 11.9062 13.8479 12.1744C13.8479 12.8397 14.3807 13.379 15.0379 13.379C15.2925 13.379 15.5278 13.2975 15.7213 13.1597C15.7213 13.1597 15.951 12.9994 16.0169 12.8587C16.1497 12.6643 16.228 12.4288 16.228 12.1744C16.2281 11.5093 15.6953 10.9699 15.038 10.9699ZM15.038 12.6517C14.7776 12.6517 14.5665 12.438 14.5665 12.1744C14.5665 11.9109 14.7776 11.6972 15.038 11.6972C15.2984 11.6972 15.5095 11.9109 15.5095 12.1744C15.5095 12.438 15.2984 12.6517 15.038 12.6517ZM24.8323 6.82778L23.4701 5.44907L23.8015 5.11365C24.0252 4.88723 24.0251 4.52024 23.8015 4.2939L22.5129 2.98968C22.2893 2.76326 21.9266 2.76326 21.703 2.98968L21.3717 3.32503L20.0096 1.94624C19.7859 1.71983 19.4233 1.71983 19.1997 1.94624L18.3897 2.76614C18.1661 2.99248 18.1661 3.35946 18.3897 3.58588L23.2124 8.46718C23.436 8.6936 23.7988 8.69359 24.0224 8.46726L24.8324 7.64744C25.0559 7.42118 25.0559 7.0542 24.8323 6.82778ZM24.5746 7.38666L23.7646 8.20649C23.6834 8.28863 23.5513 8.28862 23.4701 8.2064L18.6474 3.32503C18.5662 3.24289 18.5662 3.10907 18.6474 3.02701L19.4573 2.20719C19.5385 2.12504 19.6707 2.12504 19.7519 2.20719L24.5746 7.08856C24.6557 7.17079 24.6557 7.30451 24.5746 7.38666ZM12.4433 9.57917L6.84103 3.90871L2.07915 8.72853L3.39968 10.0651L4.26948 9.18475C4.47413 8.97753 4.8061 8.97753 5.01091 9.18475L5.02979 9.20387C5.23453 9.41109 5.23453 9.7471 5.02979 9.95432L4.15999 10.8348L4.76027 11.4424L5.63007 10.5619C5.83472 10.3547 6.16668 10.3547 6.3715 10.5619L6.3903 10.581C6.59503 10.7882 6.59503 11.1243 6.3903 11.3315L5.5205 12.2118L5.65473 12.3478L1.5444 17.3059C1.32339 17.5725 1.35775 17.9698 1.62117 18.1935L1.92456 18.432C2.06995 18.5555 2.25457 18.6294 2.42805 18.5513H7.81234L8.07512 19.8819H16.5638L17.8329 13.78L22.8076 8.73677L18.0457 3.91283L12.4433 9.57917ZM3.99955 16.9073L6.76907 13.5665L7.46573 16.9073H3.99955ZM16.2235 13.3521L13.2657 17.4346C12.937 18.1985 12.1849 18.7329 11.3091 18.7329C10.1308 18.7329 9.1757 17.766 9.1757 16.5735C9.1757 15.9141 9.46802 15.3241 9.92828 14.9281C9.93528 14.9187 9.94203 14.9092 9.9505 14.9007L13.8361 10.9678C13.8697 10.9337 13.9106 10.9122 13.9536 10.9014C14.2446 10.6472 14.6234 10.4931 15.0381 10.4931C15.9556 10.4931 16.6994 11.2459 16.6994 12.1745C16.6994 12.6331 16.5177 13.0486 16.2235 13.3521ZM11.3091 15.0264C10.465 15.0264 9.78069 15.7191 9.78069 16.5735C9.78069 17.4278 10.4649 18.1205 11.3091 18.1205C12.1532 18.1205 12.8375 17.4279 12.8375 16.5735C12.8375 15.7191 12.1533 15.0264 11.3091 15.0264ZM11.3091 17.1863C10.9746 17.1863 10.7036 16.9119 10.7036 16.5734C10.7036 16.2349 10.9746 15.9605 11.3091 15.9605C11.6435 15.9605 11.9146 16.235 11.9146 16.5734C11.9146 16.9119 11.6435 17.1863 11.3091 17.1863ZM18.6746 16.6113C17.9548 16.6113 17.3712 17.202 17.3712 17.9307C17.3712 18.6593 17.9548 19.25 18.6746 19.25C19.3945 19.25 19.9781 18.6593 19.9781 17.9307C19.9781 17.202 19.3946 16.6113 18.6746 16.6113ZM6.61042 3.64315C6.83395 3.41682 6.83395 3.04974 6.61033 2.82332L5.80045 2.00358C5.57675 1.77717 5.21417 1.77717 4.99048 2.00358L3.62835 3.38229L3.29703 3.04695C3.07342 2.82053 2.71068 2.82053 2.48714 3.04695L1.1986 4.35117C0.974985 4.57751 0.974904 4.94457 1.1986 5.17099L1.52992 5.50625L0.167703 6.88504C-0.055914 7.11129 -0.0559146 7.47837 0.167783 7.70479L0.977671 8.52453C1.20137 8.75095 1.56394 8.75095 1.78764 8.52453L6.61042 3.64315ZM1.2354 8.26375L0.425427 7.44401C0.344268 7.36178 0.344268 7.22805 0.425427 7.1459L5.2482 2.26445C5.32936 2.18238 5.46148 2.18238 5.54264 2.26445L6.35261 3.08428C6.43377 3.16642 6.43377 3.30015 6.35261 3.38229L1.52992 8.26375C1.44867 8.34597 1.31656 8.34597 1.2354 8.26375ZM19.5235 13.107C18.673 13.107 17.9835 13.8048 17.9835 14.6657C17.9835 15.5265 18.673 16.2243 19.5235 16.2243C20.374 16.2243 21.0634 15.5265 21.0634 14.6657C21.0635 13.8049 20.374 13.107 19.5235 13.107ZM19.5235 15.7824C18.9142 15.7824 18.4203 15.2824 18.4203 14.6658C18.4203 14.0491 18.9142 13.549 19.5235 13.549C20.1328 13.549 20.6267 14.0491 20.6267 14.6658C20.6267 15.2824 20.1328 15.7824 19.5235 15.7824ZM8.50534 20.5378C8.50534 22.4605 10.2091 24 12.3553 24C13.2539 24 14.0524 23.7955 14.7087 23.2476H12.6318C12.4487 23.2476 12.3719 23.1361 12.3719 22.9508V22.9345C12.3719 22.7492 12.4487 22.6214 12.6318 22.6214H15.4538C15.6138 22.3866 15.7509 22.23 15.8631 21.9952H13.3675C13.1844 21.9952 13.0679 21.8188 13.0679 21.6335V21.6171C13.0679 21.4318 13.1844 21.2908 13.3675 21.2908H16.1158C16.1737 21.056 16.2386 20.7932 16.2386 20.5379V20.508H8.50525V20.5378H8.50534Z" fill="#D4D9DF"/>
</svg>
