<svg width="21" height="24" viewBox="0 0 21 24" fill="none" xmlns="http://www.w3.org/2000/svg">
<path d="M10.5 6.05132C15.4425 6.05132 19.4492 4.69672 19.4492 3.02566C19.4492 1.3546 15.4425 0 10.5 0C5.55739 0 1.55078 1.35468 1.55078 3.02566C1.55078 4.69664 5.55739 6.05132 10.5 6.05132ZM10.5 1.191C14.3573 1.191 17.484 2.01233 17.484 3.02566C17.484 4.03891 14.3573 4.86031 10.5 4.86031C6.64276 4.86031 3.51596 4.03891 3.51596 3.02566C3.51596 2.01233 6.64276 1.191 10.5 1.191ZM10.5 7.39535C15.4304 7.39535 19.4309 6.04739 19.4506 4.38206C19.4607 4.37444 19.4685 4.36986 19.4685 4.36986V3.76126C18.7543 5.25431 15.0047 6.39177 10.5018 6.39177C5.99884 6.39177 2.24916 5.25431 1.535 3.76126V4.36986L1.55095 4.37592C1.56073 6.04403 5.56357 7.39535 10.5 7.39535ZM10.5 22.5309C5.2825 22.5309 0.938691 21.1026 0 19.2136C0.271216 21.8789 4.86837 24 10.5 24C16.1317 24 20.7288 21.8789 21 19.2135C20.0613 21.1026 15.7175 22.5309 10.5 22.5309ZM3.08119 20.728L4.03792 6.86183C3.7109 6.74057 3.40311 6.61047 3.11703 6.47201L1.91538 20.2696C2.2677 20.4201 2.65711 20.5751 3.08119 20.728ZM17.419 20.8747L15.8452 7.21956C15.5479 7.30136 15.2393 7.3766 14.9207 7.44473L16.1313 21.2743C16.5561 21.1568 16.9856 21.0239 17.419 20.8747ZM18.9054 5.8792L20.4617 19.5732C20.6116 19.4962 20.7618 19.4172 20.9123 19.3359L21 19.2135L19.5599 5.32947C19.3738 5.52033 19.1544 5.7039 18.9054 5.8792ZM12.9714 7.75595L13.7552 21.7879C14.1875 21.7202 14.6259 21.6376 15.0697 21.5389L13.8532 7.64025C13.5652 7.68455 13.2711 7.72311 12.9714 7.75595ZM0.87253 19.7891L2.08453 5.87176C1.85917 5.71242 1.65753 5.54637 1.48379 5.3741L0 19.2136L0.12571 19.3946C0.318494 19.5033 0.568905 19.6382 0.87253 19.7891ZM11.2915 22.0257C11.7457 22.0088 12.2091 21.9768 12.6807 21.9278L11.8941 7.84699C11.6103 7.86402 11.3227 7.87581 11.0316 7.88245L11.2915 22.0257ZM19.4305 20.072L17.8848 6.47152C17.5785 6.61972 17.2475 6.7585 16.8947 6.88688L18.462 20.486C18.783 20.3574 19.1059 20.2195 19.4305 20.072ZM8.71007 21.9638C9.19628 22.005 9.69695 22.0307 10.211 22.038L9.9508 7.88204C9.68426 7.87581 9.42057 7.86517 9.16013 7.85011L8.71007 21.9638ZM7.63264 21.8451L8.08177 7.7616C7.76019 7.72713 7.44505 7.6861 7.13708 7.63861L6.38441 21.6391C6.78643 21.7175 7.20297 21.7869 7.63264 21.8451ZM5.31481 21.4034L6.06541 7.44194C5.73129 7.37021 5.40813 7.29088 5.09757 7.20408L4.14016 21.08C4.51253 21.1934 4.90461 21.3023 5.31481 21.4034Z" fill="#D4D9DF"/>
</svg>
