<svg width="27" height="20" viewBox="0 0 27 20" fill="none" xmlns="http://www.w3.org/2000/svg">
<path d="M11.1837 9.39047C11.4667 9.39047 11.6962 9.16053 11.6962 8.87708C11.6962 8.59362 11.4666 8.36396 11.1837 8.36396C10.9006 8.36396 10.6712 8.59372 10.6712 8.87708C10.6711 9.16053 10.9006 9.39047 11.1837 9.39047ZM10.489 7.39421C10.1936 7.53717 9.94756 7.76844 9.78699 8.05351L7.41525 6.68243C7.41307 6.68623 7.41032 6.68974 7.40814 6.69354C6.98735 7.42376 7.23684 8.3575 7.96577 8.77917C8.48895 9.08144 9.11643 9.0381 9.58447 8.71985C9.58144 8.76006 9.57954 8.80065 9.57954 8.84162C9.57954 9.14076 9.66134 9.4205 9.80341 9.66005L7.40149 11.0492C7.40358 11.0531 7.40558 11.0569 7.40766 11.0607C7.82864 11.7909 8.76055 12.0412 9.48976 11.6195C10.0258 11.3096 10.3021 10.7229 10.2439 10.1437C10.5079 10.3352 10.8005 10.4484 11.1515 10.4484C11.1559 10.4484 11.1328 10.448 11.1328 10.448V13.2442C12.0343 13.2372 12.6758 12.5567 12.6758 11.7181C12.6758 11.0961 12.3204 10.5617 11.7881 10.3237C12.1068 10.1897 12.381 9.9551 12.556 9.66005L14.9621 11.0494C15.3736 10.3209 15.1251 9.39484 14.3999 8.97545C13.8738 8.67118 13.2432 8.71719 12.7741 9.04057C12.7822 8.97546 12.7872 8.9092 12.7872 8.84171C12.7872 8.5554 12.7123 8.28669 12.581 8.0537L14.9528 6.68233C14.5289 5.96096 13.6029 5.71533 12.8776 6.13472C12.3646 6.43139 12.0575 6.98166 12.0858 7.53621C11.826 7.34924 11.4934 7.23812 11.1328 7.23537V4.5105C11.1328 4.5105 11.156 4.51021 11.1515 4.51021C10.3098 4.51021 9.6434 5.19376 9.6434 6.03672C9.6435 6.62806 9.99786 7.14069 10.489 7.39421ZM12.3328 8.84152C12.3328 9.47735 11.8181 9.99265 11.1835 9.99265C10.5488 9.99265 10.0342 9.47735 10.0342 8.84152C10.0342 8.20579 10.5488 7.69049 11.1835 7.69049C11.8182 7.69059 12.3328 8.20579 12.3328 8.84152ZM11.1328 0.749423C6.71517 0.752085 3.04673 4.38978 3.04673 8.87698C3.04673 10.4165 3.48583 11.8555 4.22785 13.0826L1.67506 15.645L4.37049 18.342L6.91769 15.7922C8.15717 16.5606 9.61902 17.0047 11.1838 17.0047C15.6652 17.0047 19.2984 13.3754 19.2984 8.88667C19.2984 8.37708 19.2514 7.76587 19.1619 7.40476H23.6643V0.902937H11.1328V0.749423ZM15.9496 8.87698C15.9496 11.5132 13.8162 13.6501 11.1846 13.6501C8.55272 13.6501 6.41937 11.5132 6.41937 8.87698C6.41937 6.24099 8.55272 4.10404 11.1846 4.10404C13.8162 4.10413 15.9496 6.24099 15.9496 8.87698ZM27 0.399613C27 0.178893 26.8214 0 26.601 0H24.5139C24.2936 0 24.115 0.178893 24.115 0.399613V7.81786C24.115 8.03858 24.2936 8.21748 24.5139 8.21748H26.601C26.8213 8.21748 27 8.03858 27 7.81786V0.399613ZM1.34774 15.7221C1.19191 15.5662 0.939294 15.5662 0.783564 15.7221L0.116798 16.39C-0.0389326 16.5461 -0.0389326 16.799 0.116798 16.9549L3.04018 19.883C3.19591 20.039 3.44845 20.039 3.60418 19.883L4.27094 19.2151C4.42677 19.0592 4.42677 18.8062 4.27094 18.6501L1.34774 15.7221Z" fill="#D4D9DF"/>
</svg>
